<svg xmlns="http://www.w3.org/2000/svg" width="42" height="42" viewBox="0 0 42 42">
  <metadata><?xpacket begin="﻿" id="W5M0MpCehiHzreSzNTczkc9d"?>
<x:xmpmeta xmlns:x="adobe:ns:meta/" x:xmptk="Adobe XMP Core 5.6-c138 79.159824, 2016/09/14-01:09:01        ">
   <rdf:RDF xmlns:rdf="http://www.w3.org/1999/02/22-rdf-syntax-ns#">
      <rdf:Description rdf:about=""/>
   </rdf:RDF>
</x:xmpmeta>
                                                                                                    
                                                                                                    
                                                                                                    
                                                                                                    
                                                                                                    
                                                                                                    
                                                                                                    
                                                                                                    
                                                                                                    
                                                                                                    
                                                                                                    
                                                                                                    
                                                                                                    
                                                                                                    
                                                                                                    
                                                                                                    
                                                                                                    
                                                                                                    
                                                                                                    
                                                                                                    
                           
<?xpacket end="w"?></metadata>
<defs>
    <style>
      .cls-1 {
        fill: #fff;
        fill-rule: evenodd;
      }
    </style>
  </defs>
  <path id="Icon" class="cls-1" d="M2113.15,4319.77a0.372,0.372,0,0,0-.39.41c0.04,0.22.2,0.29,0.5,0.22s0.42-.2.38-0.38A0.365,0.365,0,0,0,2113.15,4319.77Zm-1.56.22c-0.29,0-.44.1-0.44,0.3,0,0.24.16,0.34,0.47,0.3,0.29,0,.43-0.1.43-0.3C2112.05,4320.05,2111.9,4319.95,2111.59,4319.99Zm-2.13-.08c-0.08.2,0.04,0.33,0.35,0.41,0.27,0.11.45,0.05,0.52-.17,0.06-.2-0.06-0.34-0.36-0.43A0.357,0.357,0,0,0,2109.46,4319.91Zm28.23-31.6a7.574,7.574,0,0,0-5.56-2.31h-26.26a7.887,7.887,0,0,0-7.87,7.87v26.26a7.887,7.887,0,0,0,7.87,7.87H2112a6.781,6.781,0,0,0,.9-0.04,1.054,1.054,0,0,0,.6-0.35,1.29,1.29,0,0,0,.3-0.92c0-.05,0-0.68-0.01-1.86s-0.01-2.12-.01-2.82l-0.63.11a8.2,8.2,0,0,1-1.52.1,11.538,11.538,0,0,1-1.9-.19,4.318,4.318,0,0,1-1.83-.82,3.464,3.464,0,0,1-1.21-1.69l-0.27-.63a7.037,7.037,0,0,0-.86-1.39,3.281,3.281,0,0,0-1.19-1.04l-0.19-.14a2.172,2.172,0,0,1-.36-0.32,1.374,1.374,0,0,1-.24-0.39,0.225,0.225,0,0,1,.13-0.31,1.842,1.842,0,0,1,.8-0.12l0.54,0.08a3.981,3.981,0,0,1,1.36.65,4.424,4.424,0,0,1,1.32,1.43,4.871,4.871,0,0,0,1.52,1.7,3.157,3.157,0,0,0,1.79.59,7.91,7.91,0,0,0,1.56-.13,5.388,5.388,0,0,0,1.23-.41,4.4,4.4,0,0,1,1.34-2.82,18.614,18.614,0,0,1-2.8-.49,11.255,11.255,0,0,1-2.57-1.07,7.363,7.363,0,0,1-2.21-1.83,8.846,8.846,0,0,1-1.43-2.87,13.849,13.849,0,0,1-.56-4.11,7.979,7.979,0,0,1,2.16-5.63,7.341,7.341,0,0,1,.19-5.58,3.861,3.861,0,0,1,2.35.37,17.158,17.158,0,0,1,2.29,1.05c0.48,0.29.87,0.54,1.16,0.74a19.765,19.765,0,0,1,10.5,0l1.04-.65a14.819,14.819,0,0,1,2.52-1.21,3.627,3.627,0,0,1,2.21-.3,7.308,7.308,0,0,1,.22,5.58,7.979,7.979,0,0,1,2.16,5.63,13.918,13.918,0,0,1-.56,4.12,8.471,8.471,0,0,1-1.45,2.87,7.614,7.614,0,0,1-2.21,1.82,11.507,11.507,0,0,1-2.58,1.07,18.614,18.614,0,0,1-2.8.49,4.853,4.853,0,0,1,1.42,3.88v6.54a1.76,1.76,0,0,0,.14.75,0.788,0.788,0,0,0,.44.4,2.134,2.134,0,0,0,.53.13,5.7,5.7,0,0,0,.67.03h6.13a7.887,7.887,0,0,0,7.87-7.87v-26.26A7.574,7.574,0,0,0,2137.69,4288.31Zm-31.38,28.26c-0.13.09-.11,0.24,0.05,0.44,0.19,0.18.33,0.21,0.44,0.08,0.13-.09.11-0.24-0.05-0.44C2106.57,4316.49,2106.42,4316.46,2106.31,4316.57Zm-0.9-.68c-0.06.12,0.01,0.23,0.19,0.33a0.227,0.227,0,0,0,.35-0.06c0.06-.13,0-0.24-0.19-0.33A0.283,0.283,0,0,0,2105.41,4315.89Zm1.75,1.75c-0.17.09-.17,0.25,0,0.49s0.32,0.3.46,0.19c0.17-.13.17-0.3,0-0.52C2107.48,4317.56,2107.32,4317.51,2107.16,4317.64Zm0.96,1.23c-0.17.14-.13,0.32,0.1,0.52,0.22,0.22.41,0.24,0.55,0.08s0.11-.32-0.11-0.52C2108.44,4318.73,2108.26,4318.7,2108.12,4318.87Z" transform="translate(-2098 -4286)"/>
</svg>
