<svg xmlns="http://www.w3.org/2000/svg" width="42" height="42" viewBox="0 0 42 42">
  <metadata><?xpacket begin="﻿" id="W5M0MpCehiHzreSzNTczkc9d"?>
<x:xmpmeta xmlns:x="adobe:ns:meta/" x:xmptk="Adobe XMP Core 5.6-c138 79.159824, 2016/09/14-01:09:01        ">
   <rdf:RDF xmlns:rdf="http://www.w3.org/1999/02/22-rdf-syntax-ns#">
      <rdf:Description rdf:about=""/>
   </rdf:RDF>
</x:xmpmeta>
                                                                                                    
                                                                                                    
                                                                                                    
                                                                                                    
                                                                                                    
                                                                                                    
                                                                                                    
                                                                                                    
                                                                                                    
                                                                                                    
                                                                                                    
                                                                                                    
                                                                                                    
                                                                                                    
                                                                                                    
                                                                                                    
                                                                                                    
                                                                                                    
                                                                                                    
                                                                                                    
                           
<?xpacket end="w"?></metadata>
<defs>
    <style>
      .cls-1 {
        fill: #fff;
        fill-rule: evenodd;
      }
    </style>
  </defs>
  <path id="Icon" class="cls-1" d="M1877.8,4286h-33.6a4.212,4.212,0,0,0-4.2,4.2v33.6a4.212,4.212,0,0,0,4.2,4.2h33.6a4.212,4.212,0,0,0,4.2-4.2v-33.6A4.212,4.212,0,0,0,1877.8,4286Zm-25.2,35.7h-6.3v-18.9h6.3v18.9Zm-3.15-22.47a3.78,3.78,0,1,1,3.78-3.78A3.764,3.764,0,0,1,1849.45,4299.23Zm26.25,22.47h-6.3v-11.13a3.15,3.15,0,0,0-6.3,0v11.13h-6.3v-18.9h6.3v2.52a6.783,6.783,0,0,1,5.25-2.94,7.441,7.441,0,0,1,7.35,7.35v11.97Z" transform="translate(-1840 -4286)"/>
</svg>
